<svg width="14" height="16" viewBox="0 0 14 16" fill="none" xmlns="http://www.w3.org/2000/svg">
<path fill-rule="evenodd" clip-rule="evenodd" d="M13.7068 8.29311C13.8943 8.48063 13.9996 8.73494 13.9996 9.00011C13.9996 9.26527 13.8943 9.51958 13.7068 9.70711L7.7068 15.7071C7.51927 15.8946 7.26497 15.9999 6.9998 15.9999C6.73464 15.9999 6.48033 15.8946 6.2928 15.7071L0.292801 9.70711C0.110643 9.5185 0.0098485 9.2659 0.0121269 9.00371C0.0144053 8.74151 0.119575 8.4907 0.304983 8.30529C0.490391 8.11988 0.741204 8.01471 1.0034 8.01243C1.2656 8.01015 1.5182 8.11095 1.7068 8.29311L5.9998 12.5861L5.9998 1.00011C5.9998 0.73489 6.10516 0.480536 6.2927 0.292999C6.48023 0.105463 6.73459 0.000106812 6.9998 0.000106812C7.26502 0.000106812 7.51937 0.105463 7.70691 0.292999C7.89444 0.480536 7.9998 0.73489 7.9998 1.00011L7.9998 12.5861L12.2928 8.29311C12.4803 8.10564 12.7346 8.00032 12.9998 8.00032C13.265 8.00032 13.5193 8.10564 13.7068 8.29311Z" fill="#F9FAFC"/>
</svg>
