<svg width="14" height="16" viewBox="0 0 14 16" fill="none" xmlns="http://www.w3.org/2000/svg">
<path fill-rule="evenodd" clip-rule="evenodd" d="M0.304871 7.70689C0.1174 7.51937 0.012085 7.26506 0.012085 6.99989C0.012085 6.73473 0.1174 6.48042 0.304871 6.29289L6.30487 0.292893C6.4924 0.105422 6.74671 0.000106812 7.01187 0.000106812C7.27704 0.000106812 7.53134 0.105422 7.71887 0.292893L13.7189 6.29289C13.901 6.4815 14.0018 6.7341 13.9995 6.99629C13.9973 7.25849 13.8921 7.5093 13.7067 7.69471C13.5213 7.88012 13.2705 7.98529 13.0083 7.98757C12.7461 7.98985 12.4935 7.88905 12.3049 7.70689L8.01187 3.41389V14.9999C8.01187 15.2651 7.90651 15.5195 7.71898 15.707C7.53144 15.8945 7.27709 15.9999 7.01187 15.9999C6.74665 15.9999 6.4923 15.8945 6.30476 15.707C6.11723 15.5195 6.01187 15.2651 6.01187 14.9999V3.41389L1.71887 7.70689C1.53134 7.89436 1.27704 7.99968 1.01187 7.99968C0.746707 7.99968 0.492399 7.89436 0.304871 7.70689Z" fill="#F9FAFC"/>
</svg>
