<svg width="182" height="13" viewBox="0 0 182 13" fill="none" xmlns="http://www.w3.org/2000/svg">
<path d="M0.056 12H4.152C7.992 12 10.712 9.712 10.712 6.496C10.712 3.28 7.992 1.008 4.152 1.008H0.056V12ZM3.16 9.184V3.824H4.664C6.328 3.824 7.512 4.928 7.512 6.496C7.512 8.064 6.328 9.184 4.664 9.184H3.16ZM17.4618 12.192C20.7098 12.192 23.4458 9.584 23.4458 6.496C23.4458 3.408 20.7098 0.815999 17.4618 0.815999C14.2138 0.815999 11.4778 3.408 11.4778 6.496C11.4778 9.584 14.2138 12.192 17.4618 12.192ZM17.4618 9.376C15.9578 9.376 14.6778 8.064 14.6778 6.496C14.6778 4.944 15.9578 3.632 17.4618 3.632C18.9658 3.632 20.2458 4.944 20.2458 6.496C20.2458 8.064 18.9658 9.376 17.4618 9.376ZM24.8841 12H27.9881V6.112L32.2761 12H35.3801V1.008H32.2761V6.896L27.9881 1.008H24.8841V12ZM45.0455 12H48.5495L44.3255 1.008H40.8215L36.5975 12H40.1015L40.6615 10.528H44.4855L45.0455 12ZM41.5415 8.24L42.5815 5.568L43.6055 8.24H41.5415ZM51.068 12H54.172V3.776H57.42V1.008H47.82V3.776H51.068V12ZM58.7904 12H61.8944V1.008H58.7904V12ZM69.3211 12.192C72.5691 12.192 75.3051 9.584 75.3051 6.496C75.3051 3.408 72.5691 0.815999 69.3211 0.815999C66.0731 0.815999 63.3371 3.408 63.3371 6.496C63.3371 9.584 66.0731 12.192 69.3211 12.192ZM69.3211 9.376C67.8171 9.376 66.5371 8.064 66.5371 6.496C66.5371 4.944 67.8171 3.632 69.3211 3.632C70.8251 3.632 72.1051 4.944 72.1051 6.496C72.1051 8.064 70.8251 9.376 69.3211 9.376ZM76.7435 12H79.8475V6.112L84.1355 12H87.2395V1.008H84.1355V6.896L79.8475 1.008H76.7435V12ZM93.7849 12.192C96.5369 12.192 98.3129 10.832 98.3129 8.512C98.3129 6.416 96.7129 5.728 94.1529 5.184C92.5849 4.848 92.2009 4.672 92.2009 4.112C92.2009 3.696 92.5689 3.392 93.3209 3.392C94.3129 3.392 95.4329 3.76 96.4569 4.496L98.0089 2.304C96.7929 1.328 95.3049 0.815999 93.4009 0.815999C90.7929 0.815999 89.0649 2.24 89.0649 4.432C89.0649 6.72 90.9049 7.344 93.2889 7.888C94.8089 8.24 95.1929 8.32 95.1929 8.848C95.1929 9.328 94.7449 9.616 93.8969 9.616C92.6009 9.616 91.3849 9.152 90.2649 8.272L88.5369 10.336C89.9289 11.568 91.8009 12.192 93.7849 12.192ZM112.904 3.776V1.008H104.056V12H112.904V9.232H107.16V7.776H112.392V5.008H107.16V3.776H112.904ZM125.398 1.008H121.83L119.718 3.968L117.622 1.008H113.99L117.894 6.528L113.99 12H117.558L119.67 9.04L121.766 12H125.398L121.494 6.48L125.398 1.008ZM126.681 12H129.785V8.688H131.945C134.409 8.688 136.153 7.104 136.153 4.848C136.153 2.592 134.409 1.008 131.945 1.008H126.681V12ZM129.785 5.872V3.824H131.689C132.425 3.824 132.953 4.256 132.953 4.848C132.953 5.44 132.425 5.872 131.689 5.872H129.785ZM142.681 12.192C145.929 12.192 148.665 9.584 148.665 6.496C148.665 3.408 145.929 0.815999 142.681 0.815999C139.433 0.815999 136.697 3.408 136.697 6.496C136.697 9.584 139.433 12.192 142.681 12.192ZM142.681 9.376C141.177 9.376 139.897 8.064 139.897 6.496C139.897 4.944 141.177 3.632 142.681 3.632C144.185 3.632 145.465 4.944 145.465 6.496C145.465 8.064 144.185 9.376 142.681 9.376ZM154.301 12.192C157.053 12.192 158.829 10.832 158.829 8.512C158.829 6.416 157.229 5.728 154.669 5.184C153.101 4.848 152.717 4.672 152.717 4.112C152.717 3.696 153.085 3.392 153.837 3.392C154.829 3.392 155.949 3.76 156.973 4.496L158.525 2.304C157.309 1.328 155.821 0.815999 153.917 0.815999C151.309 0.815999 149.581 2.24 149.581 4.432C149.581 6.72 151.421 7.344 153.805 7.888C155.325 8.24 155.709 8.32 155.709 8.848C155.709 9.328 155.261 9.616 154.413 9.616C153.117 9.616 151.901 9.152 150.781 8.272L149.053 10.336C150.445 11.568 152.317 12.192 154.301 12.192ZM169.107 3.776V1.008H160.259V12H169.107V9.232H163.363V7.776H168.595V5.008H163.363V3.776H169.107ZM171.025 12H175.121C178.961 12 181.681 9.712 181.681 6.496C181.681 3.28 178.961 1.008 175.121 1.008H171.025V12ZM174.129 9.184V3.824H175.633C177.297 3.824 178.481 4.928 178.481 6.496C178.481 8.064 177.297 9.184 175.633 9.184H174.129Z" fill="#33D6A6"/>
</svg>
